<svg width="354" height="89" viewBox="0 0 354 89" fill="none" xmlns="http://www.w3.org/2000/svg">
    <g filter="url(#filter0_d_814_638)">
        <path
            d="M116.864 76.2245C103.53 76.2245 90.18 76.2245 76.8457 76.2245C64.6806 63.895 54.0953 51.5496 45.1058 39.2201C45.2164 38.9669 45.3112 38.6978 45.4218 38.4446C64.3172 26.1468 81.6012 13.8489 97.2737 1.55108C107.748 1.55108 118.223 1.55108 128.698 1.55108C113.483 13.9597 96.5153 26.3683 77.8252 38.777C89.1056 51.2647 102.124 63.7367 116.864 76.2245ZM28.5328 76.2245C19.0218 76.2245 9.51092 76.2245 0 76.2245C11.9282 51.3281 23.8563 26.4475 35.7845 1.55108C43.3205 1.55108 50.8566 1.55108 58.3926 1.55108C48.4393 26.4475 38.4861 51.3281 28.5328 76.2245ZM189.602 50.4101C190.171 60.5396 183.52 67.4878 172.492 71.7453C163.187 75.3381 150.832 77 137.972 77C134.638 77 131.431 76.7784 128.129 76.5568C129.33 71.0964 130.514 65.6201 131.684 60.1597C134.843 60.3813 138.145 60.4921 141.447 60.4921C155.903 60.4921 164.719 57.5007 164.814 51.518C164.909 45.2029 158.131 42.987 146.614 42.987C143.928 42.987 141.226 42.987 138.54 42.987C139.077 37.7799 139.615 32.5727 140.168 27.3655C142.98 27.3655 145.792 27.3655 148.604 27.3655C155.65 27.3655 161.686 26.2576 161.812 21.9367C161.923 17.505 152.206 16.5079 147.056 16.5079C144.591 16.5079 140.341 16.8403 137.355 17.505C137.577 12.0763 137.829 6.64748 138.082 1.2187C141.558 0.886331 145.271 0.77554 148.193 0.77554C154.782 0.77554 164.656 1.5036 172.492 5.11223C178.97 8.1036 184.199 13.0892 184.547 21.2719C184.831 27.3655 180.17 32.2403 174.483 33.9022C181.845 35.4532 189.097 41.7683 189.602 50.4101ZM345 76.2245C335.489 76.2245 325.978 76.2245 316.451 76.2245C311.712 64.3698 306.972 52.5151 302.232 40.6604C293.369 47.3396 283.779 54.0345 273.494 60.7137C272.388 60.7137 271.282 60.7137 270.177 60.7137C256.116 54.0662 242.765 47.4187 230.111 40.7712C232.212 52.5942 234.313 64.4014 236.399 76.2245C226.888 76.2245 217.377 76.2245 207.866 76.2245C205.37 50.8216 202.873 25.4029 200.377 0C201.325 0 202.257 0 203.205 0C221.516 11.4906 241.912 22.9655 264.378 34.4561C280.209 22.9655 293.97 11.4906 305.645 0C306.593 0 307.525 0 308.473 0C320.654 25.4029 332.819 50.8216 345 76.2245Z"
            fill="#FA3A91" />
    </g>
    <defs>
        <filter id="filter0_d_814_638" x="0" y="0" width="354" height="89"
            filterUnits="userSpaceOnUse" color-interpolation-filters="sRGB">
            <feFlood flood-opacity="0" result="BackgroundImageFix" />
            <feColorMatrix in="SourceAlpha" type="matrix"
                values="0 0 0 0 0 0 0 0 0 0 0 0 0 0 0 0 0 0 127 0" result="hardAlpha" />
            <feOffset dx="7" dy="10" />
            <feGaussianBlur stdDeviation="1" />
            <feComposite in2="hardAlpha" operator="out" />
            <feColorMatrix type="matrix" values="0 0 0 0 0 0 0 0 0 0 0 0 0 0 0 0 0 0 1 0" />
            <feBlend mode="normal" in2="BackgroundImageFix" result="effect1_dropShadow_814_638" />
            <feBlend mode="normal" in="SourceGraphic" in2="effect1_dropShadow_814_638"
                result="shape" />
        </filter>
    </defs>
</svg>