<svg width="1044" height="91" viewBox="0 0 1044 91" fill="none" xmlns="http://www.w3.org/2000/svg">
    <g filter="url(#filter0_d_861_274)">
        <path
            d="M94.439 69.4324C75.7184 75.0718 59.7187 78 40.2311 78C9.46915 78 -12.515 67.9141 10.6487 39.5C35.2669 9.3507 72.6936 1 94.8225 1C111.126 1 122.784 3.16901 132.343 9.56761C127.075 15.4239 121.764 21.2803 116.401 27.1366C108.608 22.3648 97.4999 19.4366 83.9606 19.4366C62.5264 19.4366 45.9768 27.2451 36.5116 39.6085C27.2056 51.7549 33.371 59.5634 55.4709 59.6718C72.4114 59.6718 86.2908 56.4183 100.431 51.9718C98.39 57.792 96.3928 63.6122 94.439 69.4324ZM237.821 76.0479C226.785 76.0479 215.757 76.0479 204.722 76.0479C204.049 72.1798 203.419 68.3117 202.84 64.4437C186.016 64.4437 169.191 64.4437 152.366 64.4437C147.793 68.3117 143.176 72.1798 138.509 76.0479C127.668 76.0479 116.828 76.0479 105.981 76.0479C138.451 51.5019 168.959 26.9559 197.507 2.40986C205.539 2.40986 213.565 2.40986 221.597 2.40986C225.049 26.9559 230.462 51.5019 237.821 76.0479ZM200.756 47.2C199.859 39.2831 199.135 31.3662 198.6 23.4493C189.938 31.3662 181.095 39.2831 172.071 47.2C181.63 47.2 191.19 47.2 200.756 47.2ZM352.981 76.0479C321.105 76.0479 289.228 76.0479 257.352 76.0479C266.622 51.6826 275.892 27.3174 285.161 2.95211C293.027 2.95211 300.893 2.95211 308.759 2.95211C302.623 20.9911 296.494 39.03 290.357 57.069C312.718 57.069 335.078 57.069 357.439 57.069C355.955 63.3953 354.472 69.7216 352.981 76.0479ZM484.553 39.5C483.938 67.5887 453.509 78 424.238 78C395.661 78 367.266 67.5887 373.728 39.5C380.168 11.5197 408.904 1 433.935 1C459.067 1 485.161 11.5197 484.553 39.5ZM457.959 39.5C458.907 26.4859 449.37 18.4606 431.735 18.4606C414.208 18.4606 402.652 26.4859 400.322 39.5C397.991 52.5141 407.493 60.5394 426.438 60.5394C445.491 60.5394 457.004 52.6225 457.959 39.5ZM602.76 2.95211C606.834 27.8235 610.908 52.6948 614.982 77.5662C613.868 77.5662 612.753 77.5662 611.639 77.5662C582.758 64.4798 555.47 51.3934 529.788 38.307C530.251 50.8873 530.707 63.4676 531.163 76.0479C523.174 76.0479 515.185 76.0479 507.196 76.0479C506.335 76.0479 505.474 76.0479 504.613 76.0479C504.714 51.1765 504.808 26.3052 504.909 1.4338C505.669 1.4338 506.429 1.4338 507.196 1.4338C507.413 1.4338 507.637 1.4338 507.862 1.4338C531.583 14.4117 556.888 27.3897 583.779 40.3676C582.237 27.8958 580.703 15.4239 579.162 2.95211C587.028 2.95211 594.894 2.95211 602.76 2.95211ZM797.759 76.0479C785.341 76.0479 772.931 76.0479 760.513 76.0479C741.489 63.9737 723.26 51.8995 705.813 39.8254C705.734 39.5723 705.654 39.3193 705.575 39.0662C715.496 27.0282 724.614 14.9901 732.928 2.95211C743.862 2.95211 754.789 2.95211 765.724 2.95211C757.206 15.0986 747.828 27.2451 737.581 39.3915C756.779 51.6103 776.831 63.8291 797.759 76.0479ZM715.575 76.0479C706.718 76.0479 697.868 76.0479 689.018 76.0479C682.273 51.6826 675.522 27.3174 668.778 2.95211C676.643 2.95211 684.509 2.95211 692.375 2.95211C700.111 27.3174 707.84 51.6826 715.575 76.0479ZM863.871 50.7789C874.45 69.107 855.469 76.807 829.324 76.807C826.22 76.807 823.123 76.5901 819.91 76.3732C817.862 71.023 815.807 65.6728 813.73 60.3225C816.863 60.5394 820.062 60.6479 823.202 60.6479C836.922 60.6479 843.689 57.7197 840.577 51.8634C837.292 45.6817 829.491 43.5127 818.253 43.5127C815.633 43.5127 813.013 43.5127 810.387 43.5127C807.912 38.4155 805.437 33.3183 802.962 28.2211C805.77 28.2211 808.57 28.2211 811.378 28.2211C818.419 28.2211 823.832 27.1366 821.61 22.907C819.331 18.569 808.896 17.593 803.664 17.593C801.146 17.593 797.014 17.9183 794.394 18.569C791.427 13.2549 788.468 7.94085 785.522 2.62676C788.945 2.30141 792.766 2.19296 795.827 2.19296C808.353 2.19296 834.108 4.57887 844.173 22.2563C847.524 28.2211 845.375 32.993 840.642 34.6197C848.754 36.138 859.059 42.3197 863.871 50.7789ZM1033 76.0479C1024.15 76.0479 1015.3 76.0479 1006.45 76.0479C997.629 64.4437 988.8 52.8394 979.979 41.2352C973.669 47.7784 967.004 54.3216 959.985 60.8648C958.935 60.8648 957.886 60.8648 956.837 60.8648C940.714 54.3577 924.939 47.8507 909.518 41.3437C917 52.9117 924.483 64.4798 931.965 76.0479C923.115 76.0479 914.265 76.0479 905.415 76.0479C890.327 51.1765 875.246 26.3052 860.166 1.4338C861.15 1.4338 862.134 1.4338 863.118 1.4338C887.86 12.6765 913.636 23.9192 940.439 35.162C951.431 23.9192 961.381 12.6765 970.304 1.4338C971.288 1.4338 972.272 1.4338 973.256 1.4338C993.171 26.3052 1013.09 51.1765 1033 76.0479Z"
            fill="#FA3A91" />
        <path
            d="M94.439 69.4324C75.7184 75.0718 59.7187 78 40.2311 78C9.46915 78 -12.515 67.9141 10.6487 39.5C35.2669 9.3507 72.6936 1 94.8225 1C111.126 1 122.784 3.16901 132.343 9.56761C127.075 15.4239 121.764 21.2803 116.401 27.1366C108.608 22.3648 97.4999 19.4366 83.9606 19.4366C62.5264 19.4366 45.9768 27.2451 36.5116 39.6085C27.2056 51.7549 33.371 59.5634 55.4709 59.6718C72.4114 59.6718 86.2908 56.4183 100.431 51.9718C98.39 57.792 96.3928 63.6122 94.439 69.4324ZM237.821 76.0479C226.785 76.0479 215.757 76.0479 204.722 76.0479C204.049 72.1798 203.419 68.3117 202.84 64.4437C186.016 64.4437 169.191 64.4437 152.366 64.4437C147.793 68.3117 143.176 72.1798 138.509 76.0479C127.668 76.0479 116.828 76.0479 105.981 76.0479C138.451 51.5019 168.959 26.9559 197.507 2.40986C205.539 2.40986 213.565 2.40986 221.597 2.40986C225.049 26.9559 230.462 51.5019 237.821 76.0479ZM200.756 47.2C199.859 39.2831 199.135 31.3662 198.6 23.4493C189.938 31.3662 181.095 39.2831 172.071 47.2C181.63 47.2 191.19 47.2 200.756 47.2ZM352.981 76.0479C321.105 76.0479 289.228 76.0479 257.352 76.0479C266.622 51.6826 275.892 27.3174 285.161 2.95211C293.027 2.95211 300.893 2.95211 308.759 2.95211C302.623 20.9911 296.494 39.03 290.357 57.069C312.718 57.069 335.078 57.069 357.439 57.069C355.955 63.3953 354.472 69.7216 352.981 76.0479ZM484.553 39.5C483.938 67.5887 453.509 78 424.238 78C395.661 78 367.266 67.5887 373.728 39.5C380.168 11.5197 408.904 1 433.935 1C459.067 1 485.161 11.5197 484.553 39.5ZM457.959 39.5C458.907 26.4859 449.37 18.4606 431.735 18.4606C414.208 18.4606 402.652 26.4859 400.322 39.5C397.991 52.5141 407.493 60.5394 426.438 60.5394C445.491 60.5394 457.004 52.6225 457.959 39.5ZM602.76 2.95211C606.834 27.8235 610.908 52.6948 614.982 77.5662C613.868 77.5662 612.753 77.5662 611.639 77.5662C582.758 64.4798 555.47 51.3934 529.788 38.307C530.251 50.8873 530.707 63.4676 531.163 76.0479C523.174 76.0479 515.185 76.0479 507.196 76.0479C506.335 76.0479 505.474 76.0479 504.613 76.0479C504.714 51.1765 504.808 26.3052 504.909 1.4338C505.669 1.4338 506.429 1.4338 507.196 1.4338C507.413 1.4338 507.637 1.4338 507.862 1.4338C531.583 14.4117 556.888 27.3897 583.779 40.3676C582.237 27.8958 580.703 15.4239 579.162 2.95211C587.028 2.95211 594.894 2.95211 602.76 2.95211ZM797.759 76.0479C785.341 76.0479 772.931 76.0479 760.513 76.0479C741.489 63.9737 723.26 51.8995 705.813 39.8254C705.734 39.5723 705.654 39.3193 705.575 39.0662C715.496 27.0282 724.614 14.9901 732.928 2.95211C743.862 2.95211 754.789 2.95211 765.724 2.95211C757.206 15.0986 747.828 27.2451 737.581 39.3915C756.779 51.6103 776.831 63.8291 797.759 76.0479ZM715.575 76.0479C706.718 76.0479 697.868 76.0479 689.018 76.0479C682.273 51.6826 675.522 27.3174 668.778 2.95211C676.643 2.95211 684.509 2.95211 692.375 2.95211C700.111 27.3174 707.84 51.6826 715.575 76.0479ZM863.871 50.7789C874.45 69.107 855.469 76.807 829.324 76.807C826.22 76.807 823.123 76.5901 819.91 76.3732C817.862 71.023 815.807 65.6728 813.73 60.3225C816.863 60.5394 820.062 60.6479 823.202 60.6479C836.922 60.6479 843.689 57.7197 840.577 51.8634C837.292 45.6817 829.491 43.5127 818.253 43.5127C815.633 43.5127 813.013 43.5127 810.387 43.5127C807.912 38.4155 805.437 33.3183 802.962 28.2211C805.77 28.2211 808.57 28.2211 811.378 28.2211C818.419 28.2211 823.832 27.1366 821.61 22.907C819.331 18.569 808.896 17.593 803.664 17.593C801.146 17.593 797.014 17.9183 794.394 18.569C791.427 13.2549 788.468 7.94085 785.522 2.62676C788.945 2.30141 792.766 2.19296 795.827 2.19296C808.353 2.19296 834.108 4.57887 844.173 22.2563C847.524 28.2211 845.375 32.993 840.642 34.6197C848.754 36.138 859.059 42.3197 863.871 50.7789ZM1033 76.0479C1024.15 76.0479 1015.3 76.0479 1006.45 76.0479C997.629 64.4437 988.8 52.8394 979.979 41.2352C973.669 47.7784 967.004 54.3216 959.985 60.8648C958.935 60.8648 957.886 60.8648 956.837 60.8648C940.714 54.3577 924.939 47.8507 909.518 41.3437C917 52.9117 924.483 64.4798 931.965 76.0479C923.115 76.0479 914.265 76.0479 905.415 76.0479C890.327 51.1765 875.246 26.3052 860.166 1.4338C861.15 1.4338 862.134 1.4338 863.118 1.4338C887.86 12.6765 913.636 23.9192 940.439 35.162C951.431 23.9192 961.381 12.6765 970.304 1.4338C971.288 1.4338 972.272 1.4338 973.256 1.4338C993.171 26.3052 1013.09 51.1765 1033 76.0479Z"
            stroke="black" />
    </g>
    <defs>
        <filter id="filter0_d_861_274" x="0.500031" y="0.5" width="1042.54" height="90"
            filterUnits="userSpaceOnUse" color-interpolation-filters="sRGB">
            <feFlood flood-opacity="0" result="BackgroundImageFix" />
            <feColorMatrix in="SourceAlpha" type="matrix"
                values="0 0 0 0 0 0 0 0 0 0 0 0 0 0 0 0 0 0 127 0" result="hardAlpha" />
            <feOffset dx="7" dy="10" />
            <feGaussianBlur stdDeviation="1" />
            <feComposite in2="hardAlpha" operator="out" />
            <feColorMatrix type="matrix" values="0 0 0 0 0 0 0 0 0 0 0 0 0 0 0 0 0 0 1 0" />
            <feBlend mode="normal" in2="BackgroundImageFix" result="effect1_dropShadow_861_274" />
            <feBlend mode="normal" in="SourceGraphic" in2="effect1_dropShadow_861_274"
                result="shape" />
        </filter>
    </defs>
</svg>