<svg width="856" height="62" viewBox="0 0 856 62" fill="none" xmlns="http://www.w3.org/2000/svg">
<path d="M83.3063 8.04C83.3063 12.81 79.7363 15.51 75.0263 15.51H62.9063V21H55.9763V0.779999H74.9963C79.7363 0.779999 83.3063 3.12 83.3063 8.04ZM76.1963 8.04C76.1963 6.39 74.9063 5.55 73.1363 5.55H62.9063V10.74H73.3163C74.9663 10.74 76.1963 9.72 76.1963 8.04ZM101.998 21H88.9177V0.779999H101.998V5.4H95.1577V8.1H101.998V12.48H95.1577V16.38H101.998V21ZM127.441 21H121.171V12.24L117.901 15.45H117.451L114.271 12.33V21H108.031V0.509999H108.931L117.721 8.43L126.571 0.509999H127.441V21ZM140.152 21H133.912V0.779999H140.152V21ZM159.088 21H146.638V0.779999H152.878V15.93H159.088V21ZM170.468 21H164.228V0.779999H170.468V21ZM193.245 21H186.975V12.63H183.195V21H176.955V0.779999H183.195V7.71H186.975V0.779999H193.245V21ZM216.321 21H209.841L209.211 17.85H205.281L204.651 21H198.351L203.871 0.629999H210.801L216.321 21ZM208.521 13.26L207.231 6.12L205.971 13.26H208.521ZM237.741 0.779999V21.33H236.871L227.691 13.32V21H221.451V0.449998H222.351L231.501 8.4V0.779999H237.741ZM285.509 21H275.789L264.539 10.98V10.77L275.969 0.779999H285.599L273.359 10.86L285.509 21ZM264.059 21H257.129V0.779999H264.059V21ZM303.883 21H290.803V0.779999H303.883V5.4H297.043V8.1H303.883V12.48H297.043V16.38H303.883V21ZM322.726 5.85H318.766V21H312.526V5.85H308.566V0.779999H322.726V5.85ZM344.052 0.779999V15.36C344.052 18.75 341.892 21.54 335.892 21.54C330.192 21.54 327.762 18.75 327.762 15.36V0.779999H334.002V14.76C334.002 15.9 334.602 16.83 335.892 16.83C337.302 16.83 337.812 15.96 337.812 14.76V0.779999H344.052ZM366.549 21H360.069L359.439 17.85H355.509L354.879 21H348.579L354.099 0.629999H361.029L366.549 21ZM358.749 13.26L357.459 6.12L356.199 13.26H358.749ZM412.962 21H403.242L391.992 10.98V10.77L403.422 0.779999H413.052L400.812 10.86L412.962 21ZM391.512 21H384.582V0.779999H391.512V21ZM434.583 21H428.103L427.473 17.85H423.543L422.913 21H416.613L422.133 0.629999H429.063L434.583 21ZM426.783 13.26L425.493 6.12L424.233 13.26H426.783ZM456.033 14.49C456.033 18.18 453.723 21 448.653 21H439.713V0.779999H448.713C451.863 0.779999 455.283 2.04 455.283 5.76C455.283 7.92 453.723 9.66 452.283 9.81C454.023 10.05 456.033 11.7 456.033 14.49ZM449.073 6.63C449.073 5.73 448.323 5.37 447.303 5.37H445.953V8.04H447.303C448.413 8.04 449.073 7.53 449.073 6.63ZM449.703 14.31C449.703 12.93 448.743 12.39 447.303 12.39H445.953V16.41H447.303C448.803 16.41 449.703 15.69 449.703 14.31ZM468.084 21H461.844V0.779999H468.084V21ZM490.86 0.779999V21.33H489.99L480.81 13.32V21H474.57V0.449998H475.47L484.62 8.4V0.779999H490.86ZM510.425 21H497.345V0.779999H510.425V5.4H503.585V8.1H510.425V12.48H503.585V16.38H510.425V21ZM529.269 5.85H525.309V21H519.069V5.85H515.109V0.779999H529.269V5.85ZM575.683 21H565.963L554.713 10.98V10.77L566.143 0.779999H575.773L563.533 10.86L575.683 21ZM554.233 21H547.303V0.779999H554.233V21ZM614.276 21H607.346V11.37L598.016 16.8H597.176L587.906 11.4V21H580.976V0.359999H581.846L597.626 9.69L613.406 0.359999H614.276V21ZM640.606 21H633.676V0.779999H640.606V21ZM674.795 6.03H663.725V21H656.825V6.03H645.785V0.779999H674.795V6.03ZM708.459 14.13C708.459 18.93 704.289 21 699.189 21H679.929V0.779999H699.189C703.329 0.779999 706.719 2.37 706.719 5.97C706.719 7.68 705.639 9.06 704.319 9.39C706.359 9.63 708.459 11.31 708.459 14.13ZM699.579 6.72C699.579 5.88 698.829 5.55 697.629 5.55H686.859V7.98H697.659C698.859 7.98 699.579 7.53 699.579 6.72ZM701.319 14.28C701.319 13.11 700.389 12.6 697.839 12.6H686.859V16.23H697.989C700.359 16.23 701.319 15.63 701.319 14.28ZM743.889 10.65C743.889 16.11 740.859 21 734.469 21H727.179V0.779999H734.469C741.939 0.779999 743.889 5.94 743.889 10.65ZM737.589 10.68C737.589 7.65 736.509 5.52 734.409 5.52H733.329V16.26H734.439C736.659 16.26 737.589 13.65 737.589 10.68ZM765.696 21H759.216L758.586 17.85H754.656L754.026 21H747.726L753.246 0.629999H760.176L765.696 21ZM757.896 13.26L756.606 6.12L755.346 13.26H757.896ZM787.116 0.779999V21.33H786.246L777.066 13.32V21H770.826V0.449998H771.726L780.876 8.4V0.779999H787.116ZM34.1748 61H27.2448V51.37L17.9148 56.8H17.0748L7.80477 51.4V61H0.874766V40.36H1.74477L17.5248 49.69L33.3048 40.36H34.1748V61ZM57.2623 61H50.7823L50.1523 57.85H46.2223L45.5923 61H39.2923L44.8123 40.63H51.7423L57.2623 61ZM49.4623 53.26L48.1723 46.12L46.9123 53.26H49.4623ZM73.0283 40.78V52.96C73.0283 58.57 68.6183 61.27 62.0783 61.27H61.6883L61.9883 56.2H62.5283C65.4083 56.14 66.7883 54.97 66.7883 52.21V45.85H61.8083V40.78H73.0283ZM92.3884 61H79.3084V40.78H92.3884V45.4H85.5484V48.1H92.3884V52.48H85.5484V56.38H92.3884V61ZM110.872 61H98.4216V40.78H104.662V55.93H110.872V61ZM122.251 61H116.011V40.78H122.251V61ZM141.218 54.49C141.218 59.32 136.478 61.21 130.628 61.21C129.758 61.21 128.918 61.18 128.018 61.12L128.258 56.14C129.248 56.32 130.418 56.44 131.408 56.44C134.138 56.44 134.948 55.84 134.948 55.09C134.948 54.28 134.168 53.77 132.158 52.66C129.548 51.31 127.808 49.63 127.808 46.75C127.808 42.64 131.768 40.57 137.318 40.57C138.308 40.57 139.448 40.63 140.528 40.75L140.288 45.67C139.298 45.49 138.128 45.37 137.018 45.37C134.738 45.37 134.078 45.79 134.078 46.39C134.078 47.14 135.038 47.56 136.718 48.46C139.388 49.78 141.218 51.34 141.218 54.49ZM206.2 40.78L192.61 61.15H185.32L182.23 56.35L179.14 61.15H171.85L158.26 40.78H166.72L175.81 55.36L178.66 50.77L172.3 40.78H179.68L182.23 44.95L184.87 40.78H192.16L185.77 50.77L188.65 55.36L197.83 40.78H206.2ZM223.587 61H217.107L216.477 57.85H212.547L211.917 61H205.617L211.137 40.63H218.067L223.587 61ZM215.787 53.26L214.497 46.12L213.237 53.26H215.787ZM241.167 61H228.717V40.78H234.957V55.93H241.167V61ZM252.546 61H246.306V40.78H252.546V61ZM304.965 61H296.325L294.405 57.79H280.995L279.045 61H270.555L284.235 40.63H291.315L304.965 61ZM291.615 53.02L287.715 46.45L283.785 53.02H291.615ZM329.472 61H323.202V52.24L319.932 55.45H319.482L316.302 52.33V61H310.062V40.51H310.962L319.752 48.43L328.602 40.51H329.472V61ZM352.563 61H346.083L345.453 57.85H341.523L340.893 61H334.593L340.113 40.63H347.043L352.563 61ZM344.763 53.26L343.473 46.12L342.213 53.26H344.763ZM373.983 40.78V61.33H373.113L363.933 53.32V61H357.693V40.45H358.593L367.743 48.4V40.78H373.983ZM397.089 61H390.609L389.979 57.85H386.049L385.419 61H379.119L384.639 40.63H391.569L397.089 61ZM389.289 53.26L387.999 46.12L386.739 53.26H389.289ZM413.359 45.85H409.399V61H403.159V45.85H399.199V40.78H413.359V45.85ZM477.952 40.78L464.362 61.15H457.072L453.982 56.35L450.892 61.15H443.602L430.012 40.78H438.472L447.562 55.36L450.412 50.77L444.052 40.78H451.432L453.982 44.95L456.622 40.78H463.912L457.522 50.77L460.402 55.36L469.582 40.78H477.952ZM495.339 61H488.859L488.229 57.85H484.299L483.669 61H477.369L482.889 40.63H489.819L495.339 61ZM487.539 53.26L486.249 46.12L484.989 53.26H487.539ZM518.229 61H510.789L507.219 50.83V50.71L510.819 40.78H518.019L513.369 50.71L518.229 61ZM506.709 61H500.469V40.78H506.709V61ZM529.367 61H523.127V40.78H529.367V61ZM548.303 61H535.853V40.78H542.093V55.93H548.303V61ZM599.645 61H592.715V51.37L583.385 56.8H582.545L573.275 51.4V61H566.345V40.36H567.215L582.995 49.69L598.775 40.36H599.645V61ZM622.733 61H616.253L615.623 57.85H611.693L611.063 61H604.763L610.283 40.63H617.213L622.733 61ZM614.933 53.26L613.643 46.12L612.383 53.26H614.933ZM644.153 61H637.883V52.63H634.103V61H627.863V40.78H634.103V47.71H637.883V40.78H644.153V61ZM667.229 61H660.749L660.119 57.85H656.189L655.559 61H649.259L654.779 40.63H661.709L667.229 61ZM659.429 53.26L658.139 46.12L656.879 53.26H659.429ZM684.546 54.49C684.546 59.32 679.806 61.21 673.956 61.21C673.086 61.21 672.246 61.18 671.346 61.12L671.586 56.14C672.576 56.32 673.746 56.44 674.736 56.44C677.466 56.44 678.276 55.84 678.276 55.09C678.276 54.28 677.496 53.77 675.486 52.66C672.876 51.31 671.136 49.63 671.136 46.75C671.136 42.64 675.096 40.57 680.646 40.57C681.636 40.57 682.776 40.63 683.856 40.75L683.616 45.67C682.626 45.49 681.456 45.37 680.346 45.37C678.066 45.37 677.406 45.79 677.406 46.39C677.406 47.14 678.366 47.56 680.046 48.46C682.716 49.78 684.546 51.34 684.546 54.49ZM696.306 61H690.066V40.78H696.306V61ZM715.273 54.49C715.273 59.32 710.533 61.21 704.683 61.21C703.813 61.21 702.973 61.18 702.073 61.12L702.313 56.14C703.303 56.32 704.473 56.44 705.463 56.44C708.193 56.44 709.003 55.84 709.003 55.09C709.003 54.28 708.223 53.77 706.213 52.66C703.603 51.31 701.863 49.63 701.863 46.75C701.863 42.64 705.823 40.57 711.373 40.57C712.363 40.57 713.503 40.63 714.583 40.75L714.343 45.67C713.353 45.49 712.183 45.37 711.073 45.37C708.793 45.37 708.133 45.79 708.133 46.39C708.133 47.14 709.093 47.56 710.773 48.46C713.443 49.78 715.273 51.34 715.273 54.49ZM742.37 40.78L738.11 61.15H734.06L730.82 53.59L727.61 61.15H723.53L719.24 40.78H725.39L727.22 50.11L730.52 42.4H731.12L734.45 50.08L736.16 40.78H742.37ZM762.942 61H756.462L755.832 57.85H751.902L751.272 61H744.972L750.492 40.63H757.422L762.942 61ZM755.142 53.26L753.852 46.12L752.592 53.26H755.142ZM787.934 61H781.004V40.78H787.934V61ZM822.123 46.03H811.053V61H804.153V46.03H793.113V40.78H822.123V46.03ZM855.788 54.13C855.788 58.93 851.618 61 846.518 61H827.258V40.78H846.518C850.658 40.78 854.048 42.37 854.048 45.97C854.048 47.68 852.968 49.06 851.648 49.39C853.688 49.63 855.788 51.31 855.788 54.13ZM846.908 46.72C846.908 45.88 846.158 45.55 844.958 45.55H834.188V47.98H844.988C846.188 47.98 846.908 47.53 846.908 46.72ZM848.648 54.28C848.648 53.11 847.718 52.6 845.168 52.6H834.188V56.23H845.318C847.688 56.23 848.648 55.63 848.648 54.28Z" fill="#FFE859"/>
</svg>
