<svg width="635" height="75" viewBox="0 0 635 75" fill="none" xmlns="http://www.w3.org/2000/svg">
    <g filter="url(#filter0_d_814_639)">
        <path
            d="M105.497 62.5455C98.1797 62.5455 90.8622 62.5455 83.5448 62.5455C87.2293 52.8182 90.9009 43.0909 94.5854 33.3636C83.1326 38.8442 71.4092 44.3377 59.4283 49.8182C58.5522 49.8182 57.6891 49.8182 56.8131 49.8182C49.5858 44.3636 42.6162 38.9091 35.9172 33.4545C31.2665 43.1558 26.6158 52.8442 21.9651 62.5455C14.6477 62.5455 7.3303 62.5455 0 62.5455C10.7571 41.7013 21.5142 20.8442 32.2714 0C33.0959 0 33.9204 0 34.7449 0C44.8707 9.42857 55.7696 18.8442 67.4542 28.2727C87.2164 18.8442 106.206 9.42857 124.422 0C125.246 0 126.071 0 126.895 0C119.758 20.8442 112.634 41.7013 105.497 62.5455ZM268.941 1.27273C254.383 21.8442 238.357 42.4286 220.875 63C213.171 63 205.467 63 197.764 63C195.406 58.1558 193.151 53.2987 190.961 48.4545C186.775 53.2987 182.51 58.1558 178.169 63C170.465 63 162.761 63 155.057 63C146.039 42.4286 138.49 21.8442 132.396 1.27273C140.435 1.27273 148.461 1.27273 156.5 1.27273C160.906 16 166.007 30.7273 171.805 45.4545C175.837 40.8182 179.805 36.1818 183.708 31.5455C179.599 21.4545 175.824 11.3636 172.384 1.27273C179.393 1.27273 186.401 1.27273 193.409 1.27273C194.904 5.48052 196.462 9.7013 198.073 13.9091C201.5 9.7013 204.875 5.48052 208.186 1.27273C215.117 1.27273 222.035 1.27273 228.953 1.27273C221.339 11.3636 213.377 21.4545 205.081 31.5455C207.091 36.1818 209.178 40.8182 211.342 45.4545C223.297 30.7273 234.557 16 245.108 1.27273C253.044 1.27273 260.992 1.27273 268.941 1.27273ZM350.785 62.5455C341.664 62.5455 332.543 62.5455 323.422 62.5455C321.335 59.2987 319.287 56.0649 317.264 52.8182C315.847 52.8182 314.43 52.8182 313 52.8182C300.491 52.8182 287.982 52.8182 275.46 52.8182C273.231 56.0649 270.976 59.2987 268.67 62.5455C259.704 62.5455 250.738 62.5455 241.784 62.5455C258.635 41.974 274.03 21.3896 287.956 0.818182C294.668 0.818182 301.393 0.818182 308.105 0.818182C309.715 3.41558 311.351 6.01299 313 8.61039C324.479 26.5844 337.078 44.5714 350.785 62.5455ZM308.671 38.3636C304.768 31.7273 301.006 25.0909 297.373 18.4545C293.328 25.0909 289.167 31.7273 284.864 38.3636C292.8 38.3636 300.736 38.3636 308.671 38.3636ZM367.146 38.3636C358.991 38.3636 350.837 38.3636 342.682 38.3636C342.514 34.8831 342.334 31.3896 342.154 27.9091C350.154 27.9091 358.167 27.9091 366.167 27.9091C366.489 31.3896 366.824 34.8831 367.146 38.3636ZM493.565 1.27273C487.471 21.8442 479.922 42.4286 470.917 63C463.213 63 455.509 63 447.805 63C443.464 58.1558 439.2 53.2987 435.013 48.4545C432.823 53.2987 430.555 58.1558 428.211 63C420.507 63 412.803 63 405.099 63C387.617 42.4286 371.591 21.8442 357.033 1.27273C365.059 1.27273 373.085 1.27273 381.124 1.27273C391.598 16 402.754 30.7273 414.632 45.4545C416.758 40.8182 418.806 36.1818 420.803 31.5455C412.532 21.4545 404.609 11.3636 397.021 1.27273C404.017 1.27273 411.025 1.27273 418.033 1.27273C421.267 5.48052 424.552 9.7013 427.901 13.9091C429.602 9.7013 431.238 5.48052 432.823 1.27273C439.741 1.27273 446.659 1.27273 453.577 1.27273C450.111 11.3636 446.311 21.4545 442.176 31.5455C446.092 36.1818 450.099 40.8182 454.157 45.4545C460.057 30.7273 465.249 16 469.732 1.27273C477.681 1.27273 485.616 1.27273 493.565 1.27273ZM626 62.5455C618.683 62.5455 611.365 62.5455 604.048 62.5455C599.384 52.8182 594.721 43.0909 590.057 33.3636C583.306 38.8442 576.285 44.3377 569.007 49.8182C568.143 49.8182 567.267 49.8182 566.404 49.8182C554.488 44.3636 542.842 38.9091 531.466 33.4545C535.125 43.1558 538.796 52.8442 542.468 62.5455C535.151 62.5455 527.833 62.5455 520.503 62.5455C513.379 41.7013 506.255 20.8442 499.117 0C499.942 0 500.767 0 501.591 0C519.807 9.42857 538.796 18.8442 558.559 28.2727C570.243 18.8442 581.142 9.42857 591.268 0C592.092 0 592.917 0 593.742 0C604.499 20.8442 615.256 41.7013 626 62.5455Z"
            fill="#BEEF62" />
    </g>
    <defs>
        <filter id="filter0_d_814_639" x="0" y="0" width="635" height="75"
            filterUnits="userSpaceOnUse" color-interpolation-filters="sRGB">
            <feFlood flood-opacity="0" result="BackgroundImageFix" />
            <feColorMatrix in="SourceAlpha" type="matrix"
                values="0 0 0 0 0 0 0 0 0 0 0 0 0 0 0 0 0 0 127 0" result="hardAlpha" />
            <feOffset dx="7" dy="10" />
            <feGaussianBlur stdDeviation="1" />
            <feComposite in2="hardAlpha" operator="out" />
            <feColorMatrix type="matrix" values="0 0 0 0 0 0 0 0 0 0 0 0 0 0 0 0 0 0 1 0" />
            <feBlend mode="normal" in2="BackgroundImageFix" result="effect1_dropShadow_814_639" />
            <feBlend mode="normal" in="SourceGraphic" in2="effect1_dropShadow_814_639"
                result="shape" />
        </filter>
    </defs>
</svg>