<svg width="1487" height="91" viewBox="0 0 1487 91" fill="none" xmlns="http://www.w3.org/2000/svg">
    <g filter="url(#filter0_d_861_275)">
        <path
            d="M92.8682 69.4324C74.1008 75.0718 58.2757 78 39.1612 78C9.0436 78 -12.3192 67.9141 10.6991 39.5C35.1417 9.3507 73.2622 1 95.8829 1C112.496 1 124.367 3.16901 133.808 9.56761C128.22 15.4239 122.595 21.2803 116.949 27.1366C109.33 22.3648 98.1963 19.4366 84.5255 19.4366C62.8591 19.4366 46.1231 27.2451 36.5297 39.6085C27.1026 51.7549 33.0451 59.5634 54.8779 59.6718C71.6356 59.6718 85.5015 56.4183 99.7867 51.9718C97.4444 57.792 95.1455 63.6122 92.8682 69.4324ZM233.241 76.0479C222.404 76.0479 211.575 76.0479 200.738 76.0479C200.521 72.1798 200.326 68.3117 200.167 64.4437C183.561 64.4437 166.955 64.4437 150.342 64.4437C145.505 68.3117 140.633 72.1798 135.731 76.0479C125.09 76.0479 114.441 76.0479 103.799 76.0479C137.372 51.5019 169.594 26.9559 200.463 2.40986C208.639 2.40986 216.816 2.40986 225 2.40986C226.395 26.9559 229.142 51.5019 233.241 76.0479ZM199.87 47.2C199.755 39.2831 199.769 31.3662 199.899 23.4493C190.501 31.3662 180.98 39.2831 171.329 47.2C180.843 47.2 190.356 47.2 199.87 47.2ZM346.309 76.0479C315.013 76.0479 283.717 76.0479 252.413 76.0479C264.841 51.6826 277.261 27.3174 289.688 2.95211C297.698 2.95211 305.708 2.95211 313.711 2.95211C305.022 20.9911 296.325 39.03 287.635 57.069C309.778 57.069 331.929 57.069 354.08 57.069C351.492 63.3953 348.904 69.7216 346.309 76.0479ZM484.144 39.5C476.77 67.5887 444.512 78 415.862 78C387.892 78 362.018 67.5887 373.426 39.5C384.783 11.5197 416.007 1 441.592 1C467.285 1 491.474 11.5197 484.144 39.5ZM457.576 39.5C461.444 26.4859 453.592 18.4606 435.758 18.4606C418.031 18.4606 404.816 26.4859 399.994 39.5C395.165 52.5141 402.987 60.5394 421.696 60.5394C440.515 60.5394 453.665 52.6225 457.576 39.5ZM613.116 2.95211C609.776 27.8235 606.436 52.6948 603.103 77.5662C602.004 77.5662 600.913 77.5662 599.821 77.5662C575.321 64.4798 551.926 51.3934 529.638 38.307C526.848 50.8873 524.05 63.4676 521.259 76.0479C512.57 76.0479 503.88 76.0479 495.19 76.0479C501.408 51.1765 507.625 26.3052 513.842 1.4338C514.847 1.4338 515.852 1.4338 516.85 1.4338C537.815 14.4117 559.872 27.3897 583.02 40.3676C585.044 27.8958 587.068 15.4239 589.085 2.95211C597.096 2.95211 605.106 2.95211 613.116 2.95211ZM801.514 76.0479C792.824 76.0479 784.134 76.0479 775.444 76.0479C774.866 64.4437 774.28 52.8394 773.702 41.2352C762.764 47.7784 751.58 54.3216 740.158 60.8648C739.117 60.8648 738.083 60.8648 737.049 60.8648C734.259 59.2886 731.49 57.7125 728.728 56.1291C720.111 51.2054 711.631 46.2746 703.295 41.3437C702.97 52.9117 702.637 64.4798 702.312 76.0479C693.622 76.0479 684.933 76.0479 676.243 76.0479C677.638 51.1765 679.041 26.3052 680.436 1.4338C681.441 1.4338 682.446 1.4338 683.443 1.4338C698.047 10.7533 713.142 20.0729 728.728 29.3996C731.945 31.3156 735.177 33.2388 738.43 35.162C757.234 23.9192 775.314 12.6765 792.686 1.4338C793.691 1.4338 794.696 1.4338 795.701 1.4338C797.639 26.3052 799.576 51.1765 801.514 76.0479ZM979.696 2.95211C971.136 27.4981 961.239 52.0441 950.005 76.5901C940.853 76.5901 931.707 76.5901 922.562 76.5901C917.487 70.8061 912.477 65.0221 907.547 59.238C904.872 65.0221 902.118 70.8061 899.298 76.5901C890.153 76.5901 881.008 76.5901 871.863 76.5901C851.049 52.0441 831.581 27.4981 813.464 2.95211C823.238 2.95211 833.019 2.95211 842.793 2.95211C855.633 20.5211 869.108 38.0901 883.227 55.6592C885.786 50.1282 888.288 44.5972 890.717 39.0662C880.885 27.0282 871.364 14.9901 862.146 2.95211C870.677 2.95211 879.208 2.95211 887.731 2.95211C891.606 7.977 895.539 13.0019 899.515 18.0268C901.64 13.0019 903.715 7.977 905.732 2.95211C914.154 2.95211 922.584 2.95211 931.006 2.95211C926.452 14.9901 921.586 27.0282 916.403 39.0662C921.03 44.5972 925.721 50.1282 930.471 55.6592C937.852 38.0901 944.59 20.5211 950.67 2.95211C960.343 2.95211 970.016 2.95211 979.696 2.95211ZM1115.35 76.0479C1104.52 76.0479 1093.68 76.0479 1082.84 76.0479C1078.98 72.1798 1075.13 68.3117 1071.31 64.4437C1054.71 64.4437 1038.1 64.4437 1021.5 64.4437C1020.31 68.3117 1019.09 72.1798 1017.85 76.0479C1007.2 76.0479 996.548 76.0479 985.906 76.0479C996.302 51.5019 1005.35 26.9559 1013.04 2.40986C1021.21 2.40986 1029.39 2.40986 1037.57 2.40986C1062.15 26.9559 1088.07 51.5019 1115.35 76.0479ZM1054.74 47.2C1047.15 39.2831 1039.69 31.3662 1032.34 23.4493C1030.42 31.3662 1028.37 39.2831 1026.2 47.2C1035.71 47.2 1045.22 47.2 1054.74 47.2ZM1135.75 47.2C1125.98 47.2 1116.21 47.2 1106.43 47.2C1104.7 43.0427 1102.97 38.8854 1101.24 34.7282C1110.87 34.7282 1120.5 34.7282 1130.14 34.7282C1132.01 38.8854 1133.88 43.0427 1135.75 47.2ZM1284.37 2.95211C1284.5 27.4981 1283.29 52.0441 1280.73 76.5901C1271.59 76.5901 1262.44 76.5901 1253.29 76.5901C1246.17 70.8061 1239.12 65.0221 1232.14 59.238C1231.51 65.0221 1230.81 70.8061 1230.03 76.5901C1220.88 76.5901 1211.74 76.5901 1202.59 76.5901C1173.1 52.0441 1144.95 27.4981 1118.14 2.95211C1127.91 2.95211 1137.69 2.95211 1147.48 2.95211C1166.52 20.5211 1186.22 38.0901 1206.55 55.6592C1207.15 50.1282 1207.7 44.5972 1208.17 39.0662C1194.08 27.0282 1180.3 14.9901 1166.82 2.95211C1175.35 2.95211 1183.88 2.95211 1192.41 2.95211C1198.07 7.977 1203.77 13.0019 1209.53 18.0268C1209.87 13.0019 1210.17 7.977 1210.41 2.95211C1218.84 2.95211 1227.26 2.95211 1235.69 2.95211C1235.38 14.9901 1234.78 27.0282 1233.86 39.0662C1240.45 44.5972 1247.09 50.1282 1253.8 55.6592C1254.96 38.0901 1255.48 20.5211 1255.34 2.95211C1265.02 2.95211 1274.7 2.95211 1284.37 2.95211ZM1476 76.0479C1467.31 76.0479 1458.62 76.0479 1449.93 76.0479C1440.97 64.4437 1432.02 52.8394 1423.05 41.2352C1416.84 47.7784 1410.39 54.3216 1403.68 60.8648C1402.64 60.8648 1401.61 60.8648 1400.57 60.8648C1384.38 54.3577 1368.43 47.8507 1352.72 41.3437C1360.75 52.9117 1368.77 64.4798 1376.8 76.0479C1368.11 76.0479 1359.42 76.0479 1350.73 76.0479C1334.17 51.1765 1317.61 26.3052 1301.05 1.4338C1302.05 1.4338 1303.06 1.4338 1304.06 1.4338C1329.79 12.6765 1356.24 23.9192 1383.4 35.162C1394.08 23.9192 1404.05 12.6765 1413.3 1.4338C1414.3 1.4338 1415.31 1.4338 1416.31 1.4338C1436.21 26.3052 1456.1 51.1765 1476 76.0479Z"
            fill="#BEEF62" />
        <path
            d="M92.8682 69.4324C74.1008 75.0718 58.2757 78 39.1612 78C9.0436 78 -12.3192 67.9141 10.6991 39.5C35.1417 9.3507 73.2622 1 95.8829 1C112.496 1 124.367 3.16901 133.808 9.56761C128.22 15.4239 122.595 21.2803 116.949 27.1366C109.33 22.3648 98.1963 19.4366 84.5255 19.4366C62.8591 19.4366 46.1231 27.2451 36.5297 39.6085C27.1026 51.7549 33.0451 59.5634 54.8779 59.6718C71.6356 59.6718 85.5015 56.4183 99.7867 51.9718C97.4444 57.792 95.1455 63.6122 92.8682 69.4324ZM233.241 76.0479C222.404 76.0479 211.575 76.0479 200.738 76.0479C200.521 72.1798 200.326 68.3117 200.167 64.4437C183.561 64.4437 166.955 64.4437 150.342 64.4437C145.505 68.3117 140.633 72.1798 135.731 76.0479C125.09 76.0479 114.441 76.0479 103.799 76.0479C137.372 51.5019 169.594 26.9559 200.463 2.40986C208.639 2.40986 216.816 2.40986 225 2.40986C226.395 26.9559 229.142 51.5019 233.241 76.0479ZM199.87 47.2C199.755 39.2831 199.769 31.3662 199.899 23.4493C190.501 31.3662 180.98 39.2831 171.329 47.2C180.843 47.2 190.356 47.2 199.87 47.2ZM346.309 76.0479C315.013 76.0479 283.717 76.0479 252.413 76.0479C264.841 51.6826 277.261 27.3174 289.688 2.95211C297.698 2.95211 305.708 2.95211 313.711 2.95211C305.022 20.9911 296.325 39.03 287.635 57.069C309.778 57.069 331.929 57.069 354.08 57.069C351.492 63.3953 348.904 69.7216 346.309 76.0479ZM484.144 39.5C476.77 67.5887 444.512 78 415.862 78C387.892 78 362.018 67.5887 373.426 39.5C384.783 11.5197 416.007 1 441.592 1C467.285 1 491.474 11.5197 484.144 39.5ZM457.576 39.5C461.444 26.4859 453.592 18.4606 435.758 18.4606C418.031 18.4606 404.816 26.4859 399.994 39.5C395.165 52.5141 402.987 60.5394 421.696 60.5394C440.515 60.5394 453.665 52.6225 457.576 39.5ZM613.116 2.95211C609.776 27.8235 606.436 52.6948 603.103 77.5662C602.004 77.5662 600.913 77.5662 599.821 77.5662C575.321 64.4798 551.926 51.3934 529.638 38.307C526.848 50.8873 524.05 63.4676 521.259 76.0479C512.57 76.0479 503.88 76.0479 495.19 76.0479C501.408 51.1765 507.625 26.3052 513.842 1.4338C514.847 1.4338 515.852 1.4338 516.85 1.4338C537.815 14.4117 559.872 27.3897 583.02 40.3676C585.044 27.8958 587.068 15.4239 589.085 2.95211C597.096 2.95211 605.106 2.95211 613.116 2.95211ZM801.514 76.0479C792.824 76.0479 784.134 76.0479 775.444 76.0479C774.866 64.4437 774.28 52.8394 773.702 41.2352C762.764 47.7784 751.58 54.3216 740.158 60.8648C739.117 60.8648 738.083 60.8648 737.049 60.8648C734.259 59.2886 731.49 57.7125 728.728 56.1291C720.111 51.2054 711.631 46.2746 703.295 41.3437C702.97 52.9117 702.637 64.4798 702.312 76.0479C693.622 76.0479 684.933 76.0479 676.243 76.0479C677.638 51.1765 679.041 26.3052 680.436 1.4338C681.441 1.4338 682.446 1.4338 683.443 1.4338C698.047 10.7533 713.142 20.0729 728.728 29.3996C731.945 31.3156 735.177 33.2388 738.43 35.162C757.234 23.9192 775.314 12.6765 792.686 1.4338C793.691 1.4338 794.696 1.4338 795.701 1.4338C797.639 26.3052 799.576 51.1765 801.514 76.0479ZM979.696 2.95211C971.136 27.4981 961.239 52.0441 950.005 76.5901C940.853 76.5901 931.707 76.5901 922.562 76.5901C917.487 70.8061 912.477 65.0221 907.547 59.238C904.872 65.0221 902.118 70.8061 899.298 76.5901C890.153 76.5901 881.008 76.5901 871.863 76.5901C851.049 52.0441 831.581 27.4981 813.464 2.95211C823.238 2.95211 833.019 2.95211 842.793 2.95211C855.633 20.5211 869.108 38.0901 883.227 55.6592C885.786 50.1282 888.288 44.5972 890.717 39.0662C880.885 27.0282 871.364 14.9901 862.146 2.95211C870.677 2.95211 879.208 2.95211 887.731 2.95211C891.606 7.977 895.539 13.0019 899.515 18.0268C901.64 13.0019 903.715 7.977 905.732 2.95211C914.154 2.95211 922.584 2.95211 931.006 2.95211C926.452 14.9901 921.586 27.0282 916.403 39.0662C921.03 44.5972 925.721 50.1282 930.471 55.6592C937.852 38.0901 944.59 20.5211 950.67 2.95211C960.343 2.95211 970.016 2.95211 979.696 2.95211ZM1115.35 76.0479C1104.52 76.0479 1093.68 76.0479 1082.84 76.0479C1078.98 72.1798 1075.13 68.3117 1071.31 64.4437C1054.71 64.4437 1038.1 64.4437 1021.5 64.4437C1020.31 68.3117 1019.09 72.1798 1017.85 76.0479C1007.2 76.0479 996.548 76.0479 985.906 76.0479C996.302 51.5019 1005.35 26.9559 1013.04 2.40986C1021.21 2.40986 1029.39 2.40986 1037.57 2.40986C1062.15 26.9559 1088.07 51.5019 1115.35 76.0479ZM1054.74 47.2C1047.15 39.2831 1039.69 31.3662 1032.34 23.4493C1030.42 31.3662 1028.37 39.2831 1026.2 47.2C1035.71 47.2 1045.22 47.2 1054.74 47.2ZM1135.75 47.2C1125.98 47.2 1116.21 47.2 1106.43 47.2C1104.7 43.0427 1102.97 38.8854 1101.24 34.7282C1110.87 34.7282 1120.5 34.7282 1130.14 34.7282C1132.01 38.8854 1133.88 43.0427 1135.75 47.2ZM1284.37 2.95211C1284.5 27.4981 1283.29 52.0441 1280.73 76.5901C1271.59 76.5901 1262.44 76.5901 1253.29 76.5901C1246.17 70.8061 1239.12 65.0221 1232.14 59.238C1231.51 65.0221 1230.81 70.8061 1230.03 76.5901C1220.88 76.5901 1211.74 76.5901 1202.59 76.5901C1173.1 52.0441 1144.95 27.4981 1118.14 2.95211C1127.91 2.95211 1137.69 2.95211 1147.48 2.95211C1166.52 20.5211 1186.22 38.0901 1206.55 55.6592C1207.15 50.1282 1207.7 44.5972 1208.17 39.0662C1194.08 27.0282 1180.3 14.9901 1166.82 2.95211C1175.35 2.95211 1183.88 2.95211 1192.41 2.95211C1198.07 7.977 1203.77 13.0019 1209.53 18.0268C1209.87 13.0019 1210.17 7.977 1210.41 2.95211C1218.84 2.95211 1227.26 2.95211 1235.69 2.95211C1235.38 14.9901 1234.78 27.0282 1233.86 39.0662C1240.45 44.5972 1247.09 50.1282 1253.8 55.6592C1254.96 38.0901 1255.48 20.5211 1255.34 2.95211C1265.02 2.95211 1274.7 2.95211 1284.37 2.95211ZM1476 76.0479C1467.31 76.0479 1458.62 76.0479 1449.93 76.0479C1440.97 64.4437 1432.02 52.8394 1423.05 41.2352C1416.84 47.7784 1410.39 54.3216 1403.68 60.8648C1402.64 60.8648 1401.61 60.8648 1400.57 60.8648C1384.38 54.3577 1368.43 47.8507 1352.72 41.3437C1360.75 52.9117 1368.77 64.4798 1376.8 76.0479C1368.11 76.0479 1359.42 76.0479 1350.73 76.0479C1334.17 51.1765 1317.61 26.3052 1301.05 1.4338C1302.05 1.4338 1303.06 1.4338 1304.06 1.4338C1329.79 12.6765 1356.24 23.9192 1383.4 35.162C1394.08 23.9192 1404.05 12.6765 1413.3 1.4338C1414.3 1.4338 1415.31 1.4338 1416.31 1.4338C1436.21 26.3052 1456.1 51.1765 1476 76.0479Z"
            stroke="black" />
    </g>
    <defs>
        <filter id="filter0_d_861_275" x="0.500061" y="0.5" width="1485.54" height="90"
            filterUnits="userSpaceOnUse" color-interpolation-filters="sRGB">
            <feFlood flood-opacity="0" result="BackgroundImageFix" />
            <feColorMatrix in="SourceAlpha" type="matrix"
                values="0 0 0 0 0 0 0 0 0 0 0 0 0 0 0 0 0 0 127 0" result="hardAlpha" />
            <feOffset dx="7" dy="10" />
            <feGaussianBlur stdDeviation="1" />
            <feComposite in2="hardAlpha" operator="out" />
            <feColorMatrix type="matrix" values="0 0 0 0 0 0 0 0 0 0 0 0 0 0 0 0 0 0 1 0" />
            <feBlend mode="normal" in2="BackgroundImageFix" result="effect1_dropShadow_861_275" />
            <feBlend mode="normal" in="SourceGraphic" in2="effect1_dropShadow_861_275"
                result="shape" />
        </filter>
    </defs>
</svg>