<svg width="1254" height="119" viewBox="0 0 1254 119" fill="none" xmlns="http://www.w3.org/2000/svg">
    <g filter="url(#filter0_d_825_418)">
        <path
            d="M145.58 70.5C137.43 97.2 103.24 106.5 61.99 106.5C37.61 106.5 17.07 104.4 0 98.4C5.76 90.45 11.47 82.5 17.15 74.55C30.49 79.65 47.62 82.95 70.42 82.95C96.59 82.95 106.98 79.8 108.77 74.4C110.58 69 102.98 67.65 78.11 65.7C35.19 62.55 17.23 55.5 26.49 32.55C35.39 10.65 66.97 0 107.08 0C127.63 0 149.36 1.95 162.08 7.8C157.22 15.85 152.33 23.9 147.4 31.95C135.56 26.4 118.26 23.7 98.71 23.7C74.89 23.7 64.6 25.65 62.84 30.3C61.09 34.95 66.92 36.75 89.45 38.55C132.42 41.7 153.03 46.35 145.58 70.5ZM271.84 2.7C266.02 27 260.19 51.3 254.37 75.6C250.36 92.55 235.87 106.5 204.72 106.5C175.13 106.5 166.67 92.55 171.71 75.6C178.85 51.3 185.99 27 193.12 2.7C203.18 2.7 213.23 2.7 223.28 2.7C216.92 26 210.56 49.3 204.19 72.6C202.63 78.3 204.42 82.95 211 82.95C218.2 82.95 221.93 78.6 223.49 72.6C229.56 49.3 235.62 26 241.69 2.7C251.74 2.7 261.79 2.7 271.84 2.7ZM367.09 103.8C355.25 103.8 343.42 103.8 331.59 103.8C328.79 91.6 326.11 79.4 323.55 67.2C322.04 67.2 320.52 67.2 319.01 67.2C316.59 79.4 314.16 91.6 311.74 103.8C300.99 103.8 290.24 103.8 279.5 103.8C286.88 70.1 294.27 36.4 301.66 2.7C315.48 2.7 329.3 2.7 343.12 2.7C364.95 2.7 377.18 13.65 373.97 33.45C371.84 46.35 362.81 56.55 351.85 60.45C356.71 74.9 361.79 89.35 367.09 103.8ZM342.65 34.65C343.8 28.5 340.44 25.2 333.38 25.2C331.37 25.2 329.36 25.2 327.35 25.2C326.01 31.95 324.67 38.7 323.33 45.45C324.82 45.45 326.31 45.45 327.8 45.45C336.31 45.45 341.26 42.15 342.65 34.65ZM478.84 103.8C467.68 103.8 456.51 103.8 445.35 103.8C444.86 98.55 444.38 93.3 443.91 88.05C437.2 88.05 430.5 88.05 423.8 88.05C422.06 93.3 420.3 98.55 418.53 103.8C407.68 103.8 396.83 103.8 385.98 103.8C400.61 69.85 414.62 35.9 428 1.95C439.16 1.95 450.32 1.95 461.47 1.95C466.64 35.9 472.43 69.85 478.84 103.8ZM443.06 65.1C442.29 53.2 441.57 41.3 440.9 29.4C437.39 41.3 433.83 53.2 430.21 65.1C434.5 65.1 438.78 65.1 443.06 65.1ZM565.74 28.05C559.25 28.05 552.76 28.05 546.27 28.05C545 53.3 543.73 78.55 542.45 103.8C531.7 103.8 520.96 103.8 510.21 103.8C512 78.55 513.8 53.3 515.6 28.05C509.11 28.05 502.62 28.05 496.13 28.05C496.84 19.6 497.55 11.15 498.26 2.7C521.07 2.7 543.88 2.7 566.69 2.7C566.37 11.15 566.06 19.6 565.74 28.05ZM786.14 70.5C789.2 97.2 758.92 106.5 717.67 106.5C693.29 106.5 671.87 104.4 652.28 98.4C654.69 90.45 657.07 82.5 659.41 74.55C674.89 79.65 693.41 82.95 716.21 82.95C742.38 82.95 751.44 79.8 750.97 74.4C750.51 69 742.34 67.65 716.66 65.7C672.41 62.55 651.49 55.5 651.1 32.55C650.81 10.65 677.91 0 718.02 0C738.57 0 761.12 1.95 776.3 7.8C774.82 15.85 773.31 23.9 771.76 31.95C757.59 26.4 739.16 23.7 719.6 23.7C695.79 23.7 686.32 25.65 686.51 30.3C686.71 34.95 693.3 36.75 716.58 38.55C760.88 41.7 783.45 46.35 786.14 70.5ZM883.92 2.7C888.3 27 892.69 51.3 897.07 75.6C900.18 92.55 891.55 106.5 860.4 106.5C830.81 106.5 816.5 92.55 814.41 75.6C811.34 51.3 808.27 27 805.2 2.7C815.25 2.7 825.3 2.7 835.35 2.7C838.78 26 842.21 49.3 845.63 72.6C846.47 78.3 850.21 82.95 856.79 82.95C863.99 82.95 865.89 78.6 864.93 72.6C861.21 49.3 857.48 26 853.76 2.7C863.81 2.7 873.87 2.7 883.92 2.7ZM1018.41 103.8C1007.25 103.8 996.09 103.8 984.93 103.8C982.62 98.55 980.32 93.3 978.03 88.05C971.33 88.05 964.63 88.05 957.92 88.05C958 93.3 958.06 98.55 958.11 103.8C947.26 103.8 936.4 103.8 925.55 103.8C928.43 69.85 930.68 35.9 932.31 1.95C943.46 1.95 954.62 1.95 965.78 1.95C982.7 35.9 1000.25 69.85 1018.41 103.8ZM969.24 65.1C964.34 53.2 959.5 41.3 954.71 29.4C955.32 41.3 955.88 53.2 956.39 65.1C960.67 65.1 964.96 65.1 969.24 65.1ZM1132.51 103.8C1120.68 103.8 1108.85 103.8 1097.01 103.8C1088.22 91.6 1079.55 79.4 1071 67.2C1069.48 67.2 1067.97 67.2 1066.45 67.2C1070.03 79.4 1073.6 91.6 1077.17 103.8C1066.42 103.8 1055.67 103.8 1044.92 103.8C1035.75 70.1 1026.59 36.4 1017.42 2.7C1031.24 2.7 1045.06 2.7 1058.88 2.7C1080.7 2.7 1098.32 13.65 1104.83 33.45C1109.05 46.35 1105.02 56.55 1095.98 60.45C1107.94 74.9 1120.12 89.35 1132.51 103.8ZM1074.11 34.65C1072.23 28.5 1067.25 25.2 1060.19 25.2C1058.18 25.2 1056.17 25.2 1054.16 25.2C1056.13 31.95 1058.11 38.7 1060.09 45.45C1061.58 45.45 1063.07 45.45 1064.56 45.45C1073.08 45.45 1076.4 42.15 1074.11 34.65ZM1244.27 103.8C1233.11 103.8 1221.95 103.8 1210.78 103.8C1207.71 98.55 1204.65 93.3 1201.6 88.05C1194.9 88.05 1188.2 88.05 1181.5 88.05C1182.33 93.3 1183.15 98.55 1183.96 103.8C1173.11 103.8 1162.26 103.8 1151.41 103.8C1149.36 69.85 1146.69 35.9 1143.4 1.95C1154.56 1.95 1165.71 1.95 1176.87 1.95C1198.71 35.9 1221.18 69.85 1244.27 103.8ZM1189.48 65.1C1182.86 53.2 1176.3 41.3 1169.78 29.4C1172.11 41.3 1174.4 53.2 1176.63 65.1C1180.92 65.1 1185.2 65.1 1189.48 65.1Z"
            fill="#FDF549" />
    </g>
    <defs>
        <filter id="filter0_d_825_418" x="0" y="0" width="1253.27" height="118.5"
            filterUnits="userSpaceOnUse" color-interpolation-filters="sRGB">
            <feFlood flood-opacity="0" result="BackgroundImageFix" />
            <feColorMatrix in="SourceAlpha" type="matrix"
                values="0 0 0 0 0 0 0 0 0 0 0 0 0 0 0 0 0 0 127 0" result="hardAlpha" />
            <feOffset dx="7" dy="10" />
            <feGaussianBlur stdDeviation="1" />
            <feComposite in2="hardAlpha" operator="out" />
            <feColorMatrix type="matrix" values="0 0 0 0 0 0 0 0 0 0 0 0 0 0 0 0 0 0 1 0" />
            <feBlend mode="normal" in2="BackgroundImageFix" result="effect1_dropShadow_825_418" />
            <feBlend mode="normal" in="SourceGraphic" in2="effect1_dropShadow_825_418"
                result="shape" />
        </filter>
    </defs>
</svg>