<svg width="213" height="75" viewBox="0 0 213 75" fill="none" xmlns="http://www.w3.org/2000/svg">
<g filter="url(#filter0_d_825_561)">
<path d="M64.3482 19.2398C62.6584 26.5263 53.2405 29.0643 41.6371 29.0643C34.8102 29.0643 29.0536 28.4912 24.446 26.8538C26.2034 24.6842 27.9383 22.5146 29.6507 20.345C33.143 21.7368 37.7956 22.6374 44.0254 22.6374C51.1902 22.6374 53.9953 21.7778 54.4459 20.3041C54.9078 18.8304 52.8462 18.462 46.1883 17.9298C34.6751 17.0702 30.09 15.1462 33.1655 8.88304C36.1621 2.90643 44.307 0 54.1643 0C59.245 0 64.5961 0.532164 67.8293 2.12865C66.6915 4.32895 65.5199 6.51901 64.3257 8.7193C61.2277 7.20468 56.8229 6.46784 51.8436 6.46784C45.7828 6.46784 43.1129 7 42.5721 8.26901C42.0427 9.53801 43.5072 10.0292 49.3427 10.5205C60.4729 11.3801 65.9254 12.6491 64.3482 19.2398ZM95.0241 0.736842C94.6523 7.36842 94.2805 14 93.9088 20.6316C93.6835 25.2573 90.3714 29.0643 81.6069 29.0643C73.2818 29.0643 70.5442 25.2573 71.5131 20.6316C72.8311 14 74.1605 7.36842 75.4898 0.736842C77.9794 0.736842 80.4804 0.736842 82.97 0.736842C82.0463 7.09211 81.1338 13.4576 80.21 19.8129C79.9734 21.3684 80.6268 22.6374 82.4293 22.6374C84.4007 22.6374 85.2344 21.4503 85.4146 19.8129C86.1244 13.4576 86.8341 7.09211 87.5438 0.736842C90.0335 0.736842 92.5344 0.736842 95.0241 0.736842ZM126.838 28.3275C123.537 28.3275 120.236 28.3275 116.924 28.3275C115.223 25.0015 113.601 21.6652 112.069 18.3392C111.663 18.3392 111.258 18.3392 110.852 18.3392C111.032 21.6652 111.201 25.0015 111.382 28.3275C108.464 28.3275 105.546 28.3275 102.628 28.3275C102.549 28.3275 102.459 28.3275 102.38 28.3275C102.392 19.1272 102.403 9.93713 102.425 0.736842C102.493 0.736842 102.561 0.736842 102.628 0.736842C105.985 0.736842 109.354 0.736842 112.711 0.736842C118.096 0.736842 121.994 3.72515 122.805 9.12866C123.312 12.6491 121.768 15.4327 119.143 16.4971C121.554 20.4371 124.123 24.3874 126.838 28.3275ZM114.817 9.45614C114.671 7.77778 113.578 6.87719 111.776 6.87719C111.258 6.87719 110.751 6.87719 110.232 6.87719C110.334 8.7193 110.435 10.5614 110.525 12.4035C110.92 12.4035 111.314 12.4035 111.708 12.4035C113.939 12.4035 114.986 11.5029 114.817 9.45614ZM158.043 28.3275C154.934 28.3275 151.813 28.3275 148.693 28.3275C147.994 26.8947 147.285 25.462 146.597 24.0292C144.761 24.0292 142.913 24.0292 141.077 24.0292C141.122 25.462 141.167 26.8947 141.201 28.3275C138.171 28.3275 135.14 28.3275 132.11 28.3275C133.101 19.0658 133.631 9.79386 133.698 0.532164C136.47 0.532164 139.23 0.532164 142.001 0.532164C146.901 9.79386 152.241 19.0658 158.043 28.3275ZM143.939 17.7661C142.474 14.5219 141.055 11.2675 139.669 8.02339C139.973 11.2675 140.255 14.5219 140.491 17.7661C141.641 17.7661 142.79 17.7661 143.939 17.7661ZM171.528 7.65497C169.872 7.65497 168.204 7.65497 166.537 7.65497C169.635 14.5424 172.722 21.4401 175.809 28.3275C172.812 28.3275 169.804 28.3275 166.808 28.3275C164.093 21.4401 161.389 14.5424 158.674 7.65497C157.018 7.65497 155.351 7.65497 153.683 7.65497C152.861 5.35234 152.039 3.03947 151.205 0.736842C156.871 0.736842 162.527 0.736842 168.182 0.736842C169.297 3.03947 170.412 5.35234 171.528 7.65497ZM49.7032 60.1754C47.8444 67.462 36.1846 70 21.7085 70C13.1806 70 5.94816 69.4269 0 67.7895C2.00525 65.6199 3.96544 63.4503 5.9031 61.2807C10.4656 62.6725 16.4025 63.5731 24.2545 63.5731C33.2669 63.5731 36.7592 62.7135 37.2436 61.2398C37.728 59.7661 35.1031 59.3977 26.6203 58.8655C11.9752 58.0059 5.92563 56.0819 9.15881 49.8187C12.2906 43.8421 22.5534 40.9357 35.4298 40.9357C42.0539 40.9357 49.0723 41.4678 53.3532 43.0643C51.9901 45.2646 50.6044 47.4547 49.185 49.655C45.1069 48.1404 39.384 47.4035 32.9514 47.4035C25.1332 47.4035 21.7536 47.9357 21.179 49.2047C20.627 50.4737 22.5534 50.9649 30.0788 51.4561C44.4084 52.3158 51.438 53.5848 49.7032 60.1754ZM88.6816 41.6725C88.1521 48.3041 87.6339 54.9357 87.1045 61.5673C86.7778 66.193 82.5983 70 71.6595 70C61.2728 70 57.7354 66.193 58.8169 61.5673C60.2927 54.9357 61.7685 48.3041 63.2555 41.6725C66.4999 41.6725 69.7444 41.6725 72.9888 41.6725C71.9299 48.0278 70.8597 54.3933 69.7895 60.7485C69.5304 62.3041 70.364 63.5731 72.6284 63.5731C75.1068 63.5731 76.1657 62.386 76.3798 60.7485C77.2359 54.3933 78.0921 48.0278 78.937 41.6725C82.1815 41.6725 85.4372 41.6725 88.6816 41.6725ZM127.108 69.2632C123.21 69.2632 119.312 69.2632 115.415 69.2632C114.941 67.8304 114.479 66.3977 114.029 64.9649C111.719 64.9649 109.399 64.9649 107.089 64.9649C106.751 66.3977 106.402 67.8304 106.042 69.2632C104.904 69.2632 103.766 69.2632 102.628 69.2632C99.9809 69.2632 97.3222 69.2632 94.6748 69.2632C97.6151 61.864 100.262 54.4649 102.628 47.0658C103.225 45.2032 103.8 43.3304 104.363 41.4678C107.968 41.4678 111.562 41.4678 115.167 41.4678C118.693 50.7295 122.681 60.0015 127.108 69.2632ZM112.486 58.7018C111.584 55.4576 110.728 52.2032 109.894 48.9591C109.342 52.2032 108.757 55.4576 108.126 58.7018C109.579 58.7018 111.032 58.7018 112.486 58.7018ZM166.965 69.2632C162.831 69.2632 158.696 69.2632 154.562 69.2632C151.948 65.9371 149.414 62.6009 146.969 59.2749C146.462 59.2749 145.944 59.2749 145.426 59.2749C146.158 62.6009 146.901 65.9371 147.634 69.2632C143.882 69.2632 140.12 69.2632 136.368 69.2632C134.847 60.0629 133.327 50.8728 131.806 41.6725C136.278 41.6725 140.739 41.6725 145.2 41.6725C152.23 41.6725 157.683 44.6608 159.395 50.0643C160.488 53.5848 158.877 56.3684 155.689 57.4328C159.293 61.3728 163.045 65.3231 166.965 69.2632ZM149.177 50.3918C148.749 48.7135 147.217 47.8129 144.885 47.8129C144.232 47.8129 143.567 47.8129 142.902 47.8129C143.308 49.655 143.713 51.4971 144.119 53.3392C144.615 53.3392 145.122 53.3392 145.617 53.3392C148.467 53.3392 149.695 52.4386 149.177 50.3918ZM206 69.2632C202.102 69.2632 198.204 69.2632 194.306 69.2632C193.281 67.8304 192.267 66.3977 191.254 64.9649C188.944 64.9649 186.623 64.9649 184.314 64.9649C184.528 66.3977 184.731 67.8304 184.934 69.2632C181.137 69.2632 177.352 69.2632 173.567 69.2632C173.668 60.0015 173.308 50.7295 172.508 41.4678C176.113 41.4678 179.718 41.4678 183.311 41.4678C190.42 50.7295 197.99 60.0015 206 69.2632ZM187.299 58.7018C185.148 55.4576 183.018 52.2032 180.946 48.9591C181.644 52.2032 182.309 55.4576 182.94 58.7018C184.393 58.7018 185.846 58.7018 187.299 58.7018Z" fill="#FDF549"/>
</g>
<defs>
<filter id="filter0_d_825_561" x="0" y="0" width="213" height="75" filterUnits="userSpaceOnUse" color-interpolation-filters="sRGB">
<feFlood flood-opacity="0" result="BackgroundImageFix"/>
<feColorMatrix in="SourceAlpha" type="matrix" values="0 0 0 0 0 0 0 0 0 0 0 0 0 0 0 0 0 0 127 0" result="hardAlpha"/>
<feOffset dx="5" dy="3"/>
<feGaussianBlur stdDeviation="1"/>
<feComposite in2="hardAlpha" operator="out"/>
<feColorMatrix type="matrix" values="0 0 0 0 0 0 0 0 0 0 0 0 0 0 0 0 0 0 1 0"/>
<feBlend mode="normal" in2="BackgroundImageFix" result="effect1_dropShadow_825_561"/>
<feBlend mode="normal" in="SourceGraphic" in2="effect1_dropShadow_825_561" result="shape"/>
</filter>
</defs>
</svg>
